<svg width="295" height="289" viewBox="0 0 295 289" fill="none" xmlns="http://www.w3.org/2000/svg">
<path d="M207.583 49.4524C207.583 49.4524 187.606 100.429 265.203 147.388C334.116 189.093 263.761 258.96 223.894 270.587C172.249 285.647 114.687 240.279 88.5241 277.598C62.3617 314.916 -17.1559 248.158 18.8341 189.876C63.6037 117.376 10.2501 116.256 1.31754 84.6758C-5.09346 62.011 38.0617 -0.45303 88.8489 19.1204C131.586 35.5906 139.208 17.8594 149.455 7.41737C164.235 -7.64284 218.851 2.74757 207.583 49.4524Z" fill="#1E1E1E"/>
<path d="M120.39 217.814C107.486 217.228 92.8234 201.783 99.2752 197.677C105.727 193.572 104.945 184.969 102.599 183.797C88.1314 178.128 84.6122 165.42 81.4842 149.193C78.3562 132.966 80.1156 81.3528 80.1156 81.3528L98.2976 72.164L148.543 69.2314L162.815 92.8876C162.815 92.8876 157.583 107.011 157.145 121.142C160.57 118.405 166.553 114.636 171.025 117.326C173.919 119.062 175.662 121.775 176.405 124.81C177.367 128.743 176.64 133.232 174.544 136.876C173.089 139.41 171.384 141.936 169.023 143.876C165.683 146.621 161.023 148.178 153.836 146.911C154.125 150.766 161.64 150.931 161.64 154.864C161.64 158.578 161.5 164.248 161.64 166.399C162.813 183.994 172.393 190.055 177.28 195.92C182.168 201.785 133.293 218.401 120.39 217.814Z" fill="#A2BDFF"/>
<path d="M83.0509 145.087C90.9319 145.087 97.3207 138.14 97.3207 129.57C97.3207 121.001 90.9319 114.054 83.0509 114.054C75.17 114.054 68.7812 121.001 68.7812 129.57C68.7812 138.14 75.17 145.087 83.0509 145.087Z" fill="#0F60FF"/>
<path d="M83.0503 142.011C89.4196 142.011 94.5829 136.441 94.5829 129.57C94.5829 122.699 89.4196 117.129 83.0503 117.129C76.6811 117.129 71.5177 122.699 71.5177 129.57C71.5177 136.441 76.6811 142.011 83.0503 142.011Z" fill="#1E1E1E"/>
<path d="M120.684 146.259C128.296 146.259 134.467 139.782 134.467 131.792C134.467 123.801 128.296 117.324 120.684 117.324C113.072 117.324 106.901 123.801 106.901 131.792C106.901 139.782 113.072 146.259 120.684 146.259Z" fill="#0F60FF"/>
<path d="M120.683 144.012C126.743 144.012 131.655 138.541 131.655 131.792C131.655 125.044 126.743 119.573 120.683 119.573C114.623 119.573 109.711 125.044 109.711 131.792C109.711 138.541 114.623 144.012 120.683 144.012Z" fill="#1E1E1E"/>
<path d="M96.6337 124.808C96.6337 124.808 103.722 122.114 108.39 127.197C108.39 128.077 107.682 129.57 107.682 129.57C107.682 129.57 101.421 124.656 96.6337 128.37C95.8541 126.832 95.3843 125.165 96.6337 124.808Z" fill="#0F60FF"/>
<path d="M133.307 128.017L156.928 119.573L156.703 121.664L134.062 131.124L133.307 128.017Z" fill="#0F60FF"/>
<path d="M37.3551 232.106C36.8337 230.69 36.6289 229.177 36.7551 227.674C36.8814 226.17 37.3355 224.713 38.0857 223.404L44.1431 212.732C44.1431 212.732 44.9251 208.561 62.6509 206.084C80.3767 203.608 97.4293 199.154 99.2757 197.678C99.2757 197.678 130.598 224.583 176.716 195.262C176.716 195.262 214.362 216.511 222.965 217.293C228.018 217.753 231.947 227.702 234.328 235.833C234.724 237.183 234.837 238.6 234.662 239.995C234.488 241.39 234.028 242.735 233.312 243.946C232.597 245.156 231.64 246.207 230.502 247.033C229.363 247.859 228.067 248.442 226.694 248.746C188.633 257.212 56.2829 282.672 37.3551 232.106Z" fill="#0F60FF"/>
<path d="M169.024 143.874C164.559 154.502 161.509 158.974 157.927 158.576C154.189 158.162 153.009 152.116 153.259 146.799C160.774 148.261 165.599 146.689 169.024 143.874Z" fill="#8743FF"/>
<path d="M176.501 124.558C176.47 124.644 176.438 124.73 176.407 124.809C175.664 121.774 173.92 119.061 171.027 117.325C166.437 114.565 160.251 118.607 156.873 121.368C157.514 109.059 156.435 95.1308 149.717 92.1044C137.987 86.8256 137.51 87.9988 130.221 88.3898C123.378 88.7572 106.604 89.813 103.758 88.163C105.634 89.923 114.495 97.4768 128.626 98.165C130.221 99.338 129.189 100.316 127.626 100.12C126.063 99.9244 104.752 99.5336 88.7202 79.3964C88.7202 79.3964 79.422 96.7886 79.6252 112.436C79.6252 112.436 73.6652 100.706 77.3808 83.8924C79.6252 71.3802 85.3966 72.5524 85.3966 72.5524C85.3966 72.5524 81.4848 44.5964 108.269 47.138C116.089 48.1156 129.384 59.6504 138.377 59.4548C147.37 59.2592 155.581 59.846 155.581 59.846C155.581 59.846 168.289 57.8908 170.44 75.0954C170.533 78.5588 173.033 80.1196 179.824 80.9606C186.824 81.8272 185.689 99.9246 176.501 124.558Z" fill="#8743FF"/>
</svg>
