<?xml version="1.0" encoding="UTF-8"?>
<svg width="50px" height="50px" viewBox="0 0 50 50" version="1.1" xmlns="http://www.w3.org/2000/svg" xmlns:xlink="http://www.w3.org/1999/xlink">
    <!-- Generator: Sketch 55.2 (78181) - https://sketchapp.com -->
    <title>BCH</title>
    <desc>Created with Sketch.</desc>
    <g id="Page-1" stroke="none" stroke-width="1" fill="none" fill-rule="evenodd">
        <g id="Icons-/-Crypto-/-BCH_O">
            <g id="ロゴ">
                <circle id="Oval" fill="#F7931A" cx="25" cy="25" r="24.99875"></circle>
                <path d="M37.99,34.125 L37.72125,34.69 C37.0425,36.11375 35.38875,37.11 33.69875,37.11 C32.35375,37.11 31.19875,36.59875 30.36125,35.63125 C29.425,34.55 28.92875,32.9325 28.92875,30.95375 C28.92875,29.10875 29.4125,27.555 30.3275,26.45375 C31.1500586,25.4535884 32.3800725,24.8780815 33.675,24.8875 C35.275,24.8875 36.84125,25.83375 37.48125,27.18875 L37.73125,27.725 L40.6525,25.0525 L40.515,24.765 C39.39,22.3975 36.65375,20.9275 33.3825,20.9275 C27.92,20.9275 24.25,24.95375 24.25,30.94875 C24.25,37.1225 27.84375,41.1125 33.40625,41.1125 C36.65625,41.1125 39.35875,39.66625 40.65,37.24375 L40.79875,36.965 L37.99,34.125 Z" id="Path" fill="#FFFFFF"></path>
                <path d="M23.27,30.9475 C23.2690335,30.2785669 23.3137206,29.6103477 23.40375,28.9475 C21.68625,30.0425 18.44,29.83375 17.16125,29.82875 L17.16125,24.06 C18.7075,24.06875 23.12375,23.7075 24.24625,25.845 C24.6824462,24.8151716 25.2888294,23.8660869 26.04,23.0375 C26.2639652,22.7920473 26.5005342,22.558399 26.74875,22.3375 C26.4806551,22.2391238 26.2073204,22.1556628 25.93,22.0875 C27.45,21.3225 28.4,19.9625 28.18,17.69625 L28.18,17.69625 C27.88125,14.59375 25.20125,13.54 21.8175,13.225 L21.8175,8.92875 L19.1925,8.915 L19.1925,13.1025 C18.50375,13.1025 17.79875,13.10875 17.09875,13.11875 L17.09875,8.90375 L14.47375,8.88875 L14.47375,13.18875 C13.90625,13.1975 13.34875,13.205 12.80625,13.2025 L12.80625,13.18875 L9.19125,13.16875 L9.19125,15.96375 C9.19125,15.96375 11.1275,15.9375 11.095,15.97375 C12.1575,15.97375 12.5025,16.59875 12.6025,17.12875 L12.6025,28.91 C12.55625,29.24375 12.3525,29.775 11.6175,29.77125 C11.65125,29.80125 9.71125,29.76125 9.71125,29.76125 L9.19,32.88625 L12.60125,32.90375 C13.23625,32.90375 13.86125,32.9225 14.47625,32.93 L14.47625,37.27875 L17.095,37.29375 L17.095,32.98875 C17.81375,33.0075 18.50875,33.01625 19.18875,33.02 L19.18875,37.30375 L21.81375,37.3175 L21.81375,32.975 C22.3575,32.9475 22.8825,32.90625 23.38375,32.85 C23.3071556,32.2187388 23.2691683,31.5833905 23.27,30.9475 Z M17.16375,16.1975 C18.64375,16.20625 23.28875,15.76125 23.28875,18.845 C23.28875,21.8025 18.63875,21.4325 17.16375,21.425 L17.16375,16.1975 Z" id="Shape" fill="#FFFFFF" fill-rule="nonzero"></path>
            </g>
        </g>
    </g>
</svg>