<?xml version="1.0" encoding="UTF-8"?>
<svg width="50px" height="50px" viewBox="0 0 50 50" version="1.1" xmlns="http://www.w3.org/2000/svg" xmlns:xlink="http://www.w3.org/1999/xlink">
    <!-- Generator: Sketch 55.2 (78181) - https://sketchapp.com -->
    <title>BTC</title>
    <desc>Created with Sketch.</desc>
    <g id="Page-1" stroke="none" stroke-width="1" fill="none" fill-rule="evenodd">
        <g id="Icons-/-Crypto-/-Bitcoin">
            <g id="BTC">
                <path d="M49.7876368,25.1234826 C49.7876368,38.8620398 38.6505721,49.9991045 24.9120149,49.9991045 C11.1734577,49.9991045 0.0363930348,38.8620398 0.0363930348,25.1234826 C0.0363930348,11.3849254 11.1734577,0.247860697 24.9120149,0.247860697 C38.6505721,0.247860697 49.7876368,11.3849254 49.7876368,25.1234826" id="Fill-504" fill="#FFC246"></path>
                <path d="M36.0468632,21.7264715 C36.5611631,18.2326094 33.9273243,16.3440353 30.3116403,15.0849858 L31.4805036,10.3635505 L28.5661376,9.62385899 L27.4128591,14.2508656 L25.1374717,13.7000315 L26.2751654,9.05728675 L23.4231387,8.33333333 L22.2542753,13.0547686 L16.4878827,11.6383381 L15.7865646,14.7230091 C15.7865646,14.7230091 17.9061036,15.2108908 17.859349,15.242367 C18.6646579,15.3636288 19.2418171,16.0904588 19.1840609,16.9106075 L16.0670918,29.9102927 C15.9846112,30.1775582 15.8002726,30.4007331 15.554705,30.5306288 C15.3091373,30.6605245 15.0224985,30.6864783 14.7579649,30.6027699 C14.7579649,30.6027699 12.529332,30.0676739 12.529332,30.0676739 L11.1111111,33.3726786 L14.8358891,34.3169657 L16.8775038,34.8520617 L15.6930556,39.573497 L18.5450822,40.2817123 L19.7139456,35.560277 L22.0205027,36.2212779 L20.8516393,40.9427133 L23.7192508,41.6666667 L24.903699,36.8665408 C29.7817555,37.8108278 33.4441941,37.433113 34.9870938,32.9792257 C36.2338814,29.3909348 34.9870938,27.3135033 32.3688398,25.9757633 C34.4073733,25.5657585 35.917223,23.8213998 36.0468632,21.7264715 Z M29.5168132,30.9804847 C28.628477,34.5687756 22.6438965,32.5542965 20.7113757,32.1451054 L22.2698602,25.8498584 C24.1556264,26.2747875 30.3739796,27.2190746 29.4544738,30.9804847 L29.5168132,30.9804847 Z M30.3895645,21.6792572 C29.5947374,24.9370475 24.607587,23.2530689 23.0023479,22.8753541 L24.3582294,17.115203 C25.9790533,17.5243941 31.1688067,18.2798237 30.3272251,21.6792572 L30.3895645,21.6792572 Z" id="Shape" fill="#FFFFFF"></path>
            </g>
        </g>
    </g>
</svg>