<svg width="783" height="783" viewBox="0 0 783 783" fill="none" xmlns="http://www.w3.org/2000/svg">
<circle cx="391.5" cy="391.5" r="391.5" fill="#1E1A31"/>
<path d="M412.162 377.765C422.76 377.765 431.351 386.357 431.351 396.955C431.351 407.553 422.76 416.144 412.162 416.144H362.351C314.109 416.144 275 377.036 275 328.793C275 280.55 314.109 241.442 362.351 241.442H490.81C501.408 241.442 510 250.033 510 260.631C510 271.229 501.408 279.821 490.81 279.821H362.351C335.305 279.821 313.379 301.747 313.379 328.793C313.379 355.84 335.305 377.765 362.351 377.765H412.162Z" fill="white"/>
<path d="M372.838 416.144C362.24 416.144 353.649 407.552 353.649 396.954C353.649 386.356 362.24 377.765 372.838 377.765H422.649C470.891 377.765 510 416.873 510 465.116C510 513.359 470.891 552.467 422.649 552.467H294.19C283.592 552.467 275 543.876 275 533.278C275 522.68 283.592 514.088 294.19 514.088H422.649C449.695 514.088 471.621 492.163 471.621 465.116C471.621 438.07 449.695 416.144 422.649 416.144H372.838Z" fill="white"/>
<path d="M309.353 544.726L278.156 522.372L474.372 248.542L505.568 270.897L309.353 544.726Z" fill="white" fill-opacity="0.5"/>
</svg>
