<?xml version="1.0" encoding="UTF-8"?>
<svg width="50px" height="50px" viewBox="0 0 50 50" version="1.1" xmlns="http://www.w3.org/2000/svg" xmlns:xlink="http://www.w3.org/1999/xlink">
    <!-- Generator: Sketch 55.2 (78181) - https://sketchapp.com -->
    <title>XRP</title>
    <desc>Created with Sketch.</desc>
    <g id="Page-1" stroke="none" stroke-width="1" fill="none" fill-rule="evenodd">
        <g id="Icons-/-Crypto-/-Ripple_O">
            <path d="M25,50 C11.19275,50 0,38.80725 0,25 C0,11.19275 11.19275,0 25,0 C38.80725,0 50,11.19275 50,25 C50,38.80725 38.80725,50 25,50 Z" id="Fill-504" fill="#1786C4"></path>
            <path d="M37.3730753,10 L42.435363,10 L31.9033347,20.7882328 C28.0909762,24.693446 21.9097946,24.693446 18.0973701,20.7882328 L7.56545735,10 L12.627646,10 L20.6284809,18.1955509 C23.0430022,20.6688362 26.9576036,20.6688362 29.3722734,18.1955509 L37.3730753,10 Z M12.5622052,40 L7.5,40 L18.0969764,29.1450988 C21.9094009,25.2399068 28.090566,25.2399068 31.9030896,29.1450988 L42.5,40 L37.4377123,40 L29.3718632,31.7377481 C26.9571934,29.2644301 23.0426085,29.2644301 20.6280873,31.7377481 L12.5622052,40 Z" id="Combined-Shape" fill="#FFFFFF"></path>
        </g>
    </g>
</svg>