<svg width="18" height="21" viewBox="0 0 18 21" fill="none" xmlns="http://www.w3.org/2000/svg">
<path fill-rule="evenodd" clip-rule="evenodd" d="M0.842792 16.3666C0.31984 16.0467 0 15.4772 0 14.8654V11.4499C0 11.3192 0.0350191 11.1932 0.100388 11.0811C0.303498 10.7308 0.754077 10.6118 1.10427 10.8173L8.81316 15.3113C9.26372 15.5752 9.54154 16.0561 9.54154 16.579V20.1183C9.54154 20.2794 9.49713 20.4405 9.41313 20.5782C9.15864 20.9938 8.617 21.1245 8.20143 20.87L0.842792 16.3666ZM12.3337 9.88104C12.7843 10.1449 13.0621 10.6258 13.0621 11.1487V18.33C13.0621 18.5425 12.9477 18.7385 12.7633 18.8413L11.0753 19.7915C11.0543 19.8032 11.031 19.8125 11.0077 19.8195V15.832C11.0077 15.316 10.7368 14.8374 10.2933 14.5713L3.52291 10.5208V6.01965C3.52291 5.88891 3.55794 5.76284 3.6233 5.65078C3.82641 5.30059 4.27699 5.18152 4.62718 5.38697L12.3337 9.88104ZM15.7072 4.57686C16.1601 4.83834 16.4379 5.32393 16.4379 5.84689V16.3363C16.4379 16.551 16.3189 16.7494 16.1298 16.8522L14.5305 17.716V10.4134C14.5305 9.89746 14.2598 9.42114 13.8185 9.15499L6.89875 5.0041V0.734108C6.89875 0.603371 6.93376 0.477303 6.9968 0.365241C7.19991 0.0150513 7.65049 -0.104013 8.00069 0.0990972L15.7072 4.57686Z" fill="#00D395"/>
</svg>
