<?xml version="1.0" encoding="utf-8"?>
<!-- Generator: Adobe Illustrator 19.0.0, SVG Export Plug-In . SVG Version: 6.00 Build 0)  -->
<svg version="1.1" id="Layer_1" xmlns="http://www.w3.org/2000/svg" xmlns:xlink="http://www.w3.org/1999/xlink" x="0px" y="0px"
	 viewBox="0 0 151.3 57.6" style="enable-background:new 0 0 151.3 57.6;" xml:space="preserve">
<style type="text/css">
	.st0{fill-rule:evenodd;clip-rule:evenodd;fill:#F3A800;}
	.st1{fill-rule:evenodd;clip-rule:evenodd;fill:#FFFFFF;}
	.st2{fill:#FFFFFF;}
	.st3{fill:#F3A800;}
</style>
<g>
	<path id="XMLID_13_" class="st0" d="M51.6,28.2C55,26,55.9,23,65.4,18.5c17.3-8.2,34.9-4.5,49.4,7.1c0.2,0.1,3,2.8,3,2.9
		c-0.8-4.6-7.9-12-12.1-15c-12.3-8.9-29.1-9-41.6-0.4C60.1,15.8,53.3,22.4,51.6,28.2z"/>
	<path id="XMLID_12_" class="st1" d="M78.9,30l0,1.2c0,0,2.6-1.1,2.8,2.1l0.1,18.6l3.5,0.1l0.1-24.2c-0.3,0-0.9-0.1-1.4,0L78.9,30z"
		/>
	<g>
		<path class="st2" d="M14.5,28.3h4.3l9,23.2h-4.4l-2.2-6.2h-9.3l-2.2,6.2H5.6L14.5,28.3z M13.1,42.3h7.1l-3.5-10h-0.1L13.1,42.3z"
			/>
		<path class="st2" d="M39.6,40.3c-0.2-1-0.6-1.8-1.3-2.3c-0.7-0.6-1.5-0.8-2.6-0.8c-0.5,0-1.1,0.1-1.6,0.3c-0.5,0.2-1,0.5-1.5,0.9
			c-0.5,0.4-0.8,1.1-1.1,1.9c-0.3,0.8-0.4,1.8-0.4,3c0,0.7,0.1,1.4,0.3,2.1c0.2,0.7,0.4,1.3,0.8,1.8c0.4,0.6,0.8,1,1.4,1.3
			c0.6,0.3,1.2,0.5,2,0.5c1.1,0,2-0.3,2.7-1c0.7-0.7,1.1-1.6,1.3-2.8h3.7c-0.3,2.2-1.2,3.9-2.5,5c-1.3,1.2-3.1,1.7-5.2,1.7
			c-2.6,0-4.6-0.8-6-2.4c-1.4-1.6-2.2-3.7-2.2-6.3c0-2.6,0.7-4.8,2.1-6.5c1.4-1.7,3.5-2.5,6.2-2.5c2.1,0,3.8,0.5,5.2,1.6
			c1.4,1,2.2,2.6,2.4,4.5H39.6z"/>
		<path class="st2" d="M56.4,40.3c-0.2-1-0.6-1.8-1.3-2.3c-0.7-0.6-1.5-0.8-2.6-0.8c-0.5,0-1.1,0.1-1.6,0.3c-0.5,0.2-1,0.5-1.5,0.9
			c-0.5,0.4-0.8,1.1-1.1,1.9c-0.3,0.8-0.4,1.8-0.4,3c0,0.7,0.1,1.4,0.3,2.1c0.2,0.7,0.4,1.3,0.8,1.8c0.4,0.6,0.8,1,1.4,1.3
			c0.6,0.3,1.2,0.5,2,0.5c1.1,0,2-0.3,2.7-1c0.7-0.7,1.1-1.6,1.3-2.8h3.7c-0.3,2.2-1.2,3.9-2.5,5c-1.3,1.2-3.1,1.7-5.2,1.7
			c-2.6,0-4.6-0.8-6-2.4c-1.4-1.6-2.2-3.7-2.2-6.3c0-2.6,0.7-4.8,2.1-6.5c1.4-1.7,3.5-2.5,6.2-2.5c2.1,0,3.8,0.5,5.2,1.6
			c1.4,1,2.2,2.6,2.4,4.5H56.4z"/>
		<path class="st2" d="M64.8,44.1c0,1.4,0.4,2.6,1.2,3.5c0.8,1,1.9,1.4,3.4,1.4c2.1,0,3.5-0.9,4.1-2.8h3.5c-0.4,1.8-1.3,3.2-2.7,4.2
			c-1.4,1-3,1.5-4.9,1.5c-2.6,0-4.6-0.8-6.1-2.4c-1.5-1.6-2.2-3.8-2.2-6.4c0-1.2,0.2-2.3,0.6-3.4c0.4-1.1,0.9-2,1.6-2.8
			c0.7-0.8,1.6-1.5,2.6-1.9c1-0.5,2.1-0.7,3.3-0.7c1.2,0,2.3,0.2,3.3,0.7c1,0.5,1.8,1.1,2.6,1.9c0.7,0.8,1.3,1.7,1.6,2.8
			c0.4,1,0.6,2.1,0.6,3.3c0,0.4,0,0.8-0.1,1.2H64.8z M73.4,41.6c-0.1-1.2-0.5-2.3-1.3-3.2c-0.8-0.9-1.8-1.3-3-1.3
			c-1.3,0-2.3,0.4-3.1,1.3c-0.8,0.8-1.3,1.9-1.3,3.2H73.4z"/>
	</g>
	<g>
		<path class="st3" d="M104.4,28.5c1.4,0.6,2.6,1.5,3.5,2.6c1,1.1,1.7,2.4,2.2,3.9c0.5,1.5,0.8,3,0.8,4.7c0,1.7-0.3,3.2-0.8,4.7
			c-0.5,1.5-1.2,2.8-2.2,3.9c-1,1.1-2.1,2-3.5,2.6c-1.4,0.6-2.9,0.9-4.6,0.9c-1.7,0-3.2-0.3-4.6-0.9c-1.4-0.6-2.6-1.5-3.5-2.6
			c-1-1.1-1.7-2.4-2.2-3.9c-0.5-1.5-0.8-3-0.8-4.7c0-1.7,0.3-3.2,0.8-4.7c0.5-1.5,1.2-2.8,2.2-3.9c1-1.1,2.1-2,3.5-2.6
			c1.4-0.6,2.9-0.9,4.6-0.9C101.4,27.6,103,27.9,104.4,28.5z M96.6,31.6c-0.9,0.5-1.6,1.1-2.2,2c-0.6,0.8-1,1.8-1.3,2.8
			c-0.3,1.1-0.4,2.2-0.4,3.3c0,1.2,0.1,2.3,0.4,3.3c0.3,1.1,0.7,2,1.3,2.8c0.6,0.8,1.3,1.5,2.2,2c0.9,0.5,1.9,0.7,3.1,0.7
			c1.2,0,2.2-0.2,3.1-0.7c0.9-0.5,1.6-1.2,2.2-2c0.6-0.8,1-1.8,1.3-2.8c0.3-1.1,0.4-2.2,0.4-3.3c0-1.2-0.1-2.3-0.4-3.3
			c-0.3-1.1-0.7-2-1.3-2.8c-0.6-0.8-1.3-1.5-2.2-2c-0.9-0.5-1.9-0.7-3.1-0.7C98.6,30.9,97.5,31.1,96.6,31.6z"/>
		<path class="st3" d="M112.8,34.5h3.5V37l0.1,0.1c0.6-0.9,1.3-1.7,2.2-2.2c0.9-0.5,1.9-0.8,3-0.8c1.9,0,3.3,0.5,4.4,1.5
			c1.1,1,1.6,2.4,1.6,4.2v11.6h-3.7V40.8c0-1.3-0.3-2.3-0.8-2.9c-0.5-0.6-1.4-0.9-2.5-0.9c-1.2,0-2.2,0.4-2.9,1.3
			c-0.7,0.8-1.1,1.9-1.1,3.2v9.9h-3.7V34.5z"/>
		<path class="st3" d="M133.1,43.9c0,1.4,0.4,2.6,1.2,3.5c0.8,1,1.9,1.4,3.4,1.4c2.1,0,3.5-0.9,4.1-2.8h3.5
			c-0.4,1.8-1.3,3.2-2.7,4.2c-1.4,1-3,1.5-4.9,1.5c-2.6,0-4.6-0.8-6.1-2.4c-1.5-1.6-2.2-3.8-2.2-6.4c0-1.2,0.2-2.3,0.6-3.4
			c0.4-1.1,0.9-2,1.6-2.8c0.7-0.8,1.6-1.5,2.6-1.9c1-0.5,2.1-0.7,3.3-0.7c1.2,0,2.3,0.2,3.3,0.7c1,0.5,1.8,1.1,2.6,1.9
			c0.7,0.8,1.3,1.7,1.6,2.8c0.4,1,0.6,2.1,0.6,3.3c0,0.4,0,0.8-0.1,1.2H133.1z M141.8,41.5c-0.1-1.2-0.5-2.3-1.3-3.2
			c-0.8-0.9-1.8-1.3-3-1.3c-1.3,0-2.3,0.4-3.1,1.3c-0.8,0.8-1.3,1.9-1.3,3.2H141.8z"/>
	</g>
</g>
</svg>
