<svg width="15" height="21" viewBox="0 0 15 21" fill="none" xmlns="http://www.w3.org/2000/svg">
<path d="M14.2984 7.04725C14.2232 3.07911 10.9616 -0.0746177 7.01363 0.0013439C5.16513 0.036777 3.40217 0.790487 2.09485 2.10425C0.787531 3.41801 0.0375158 5.18965 0.00225641 7.04725C0.00225641 7.06502 0 7.08505 0 7.10205V7.21278V20.2015C-2.19905e-09 20.3063 0.0205536 20.4102 0.0604874 20.507C0.100421 20.6039 0.158953 20.692 0.232741 20.7661C0.306529 20.8403 0.394128 20.8991 0.490536 20.9392C0.586945 20.9793 0.690275 21 0.794627 21C0.898979 21 1.00231 20.9793 1.09872 20.9392C1.19513 20.8991 1.28273 20.8403 1.35651 20.7661C1.4303 20.692 1.48883 20.6039 1.52877 20.507C1.5687 20.4102 1.58925 20.3063 1.58925 20.2015V17.8803C1.58925 17.7754 1.60981 17.6716 1.64974 17.5747C1.68968 17.4778 1.74821 17.3898 1.82199 17.3156C1.89578 17.2415 1.98338 17.1827 2.07979 17.1425C2.1762 17.1024 2.27953 17.0817 2.38388 17.0817C2.48823 17.0817 2.59156 17.1024 2.68797 17.1425C2.78438 17.1827 2.87198 17.2415 2.94577 17.3156C3.01956 17.3898 3.07809 17.4778 3.11802 17.5747C3.15795 17.6716 3.17851 17.7754 3.17851 17.8803V18.9815C3.18303 19.1904 3.26875 19.3891 3.41732 19.5352C3.56588 19.6813 3.76547 19.7631 3.97332 19.7631C4.18118 19.7631 4.38076 19.6813 4.52933 19.5352C4.67789 19.3891 4.76362 19.1904 4.76814 18.9815V17.8803C4.76814 17.6686 4.85181 17.4655 5.00075 17.3158C5.14969 17.166 5.35171 17.0818 5.56239 17.0817C5.77311 17.0818 5.97516 17.166 6.12417 17.3157C6.27316 17.4655 6.35692 17.6685 6.35702 17.8803V18.1826C6.35702 18.3944 6.44074 18.5975 6.58976 18.7473C6.73878 18.897 6.94089 18.9812 7.15164 18.9812C7.36239 18.9812 7.56451 18.897 7.71353 18.7473C7.86255 18.5975 7.94627 18.3944 7.94627 18.1826V17.8803C7.95079 17.6715 8.03652 17.4727 8.18508 17.3266C8.33364 17.1805 8.53323 17.0987 8.74109 17.0987C8.94894 17.0987 9.14853 17.1805 9.29709 17.3266C9.44565 17.4727 9.53138 17.6715 9.5359 17.8803V18.9815C9.5359 19.1933 9.61962 19.3964 9.76864 19.5462C9.91766 19.6959 10.1198 19.7801 10.3305 19.7801C10.5413 19.7801 10.7434 19.6959 10.8924 19.5462C11.0414 19.3964 11.1252 19.1933 11.1252 18.9815V17.8803C11.1252 17.6686 11.2088 17.4655 11.3578 17.3158C11.5067 17.166 11.7087 17.0818 11.9194 17.0817C12.1301 17.0818 12.3322 17.166 12.4812 17.3157C12.6302 17.4655 12.7139 17.6685 12.714 17.8803V20.2015C12.714 20.4132 12.7978 20.6164 12.9468 20.7661C13.0958 20.9159 13.2979 21 13.5087 21C13.7194 21 13.9215 20.9159 14.0705 20.7661C14.2196 20.6164 14.3033 20.4132 14.3033 20.2015V7.10243C14.301 7.08353 14.2999 7.06464 14.2984 7.04725ZM4.51354 8.19839C3.81105 8.19839 3.24131 7.54308 3.24131 6.73245C3.24131 5.92181 3.81105 5.2665 4.51354 5.2665C5.21603 5.2665 5.78577 5.92181 5.78577 6.73245C5.78577 7.54308 5.21716 8.19839 4.51429 8.19839H4.51354ZM7.20692 10.2675C6.56761 10.2675 6.0524 9.8858 6.0524 9.41453C6.0524 8.94327 6.56949 9.22784 7.20692 9.22784C7.84436 9.22784 8.36145 8.94365 8.36145 9.41453C8.36145 9.88542 7.84586 10.2671 7.20768 10.2671L7.20692 10.2675ZM9.78711 8.19839C9.08462 8.19839 8.51488 7.54308 8.51488 6.73245C8.51488 5.92181 9.08462 5.2665 9.78711 5.2665C10.4896 5.2665 11.0593 5.92181 11.0593 6.73245C11.0593 7.54308 10.49 8.19839 9.78749 8.19839H9.78711Z" fill="url(#paint0_linear)"/>
<path opacity="0.06" d="M0.107178 5.97132C0.107178 5.97132 1.49035 1.55723 7.22874 1.59994C14.3503 1.68648 14.2988 9.70251 14.2988 9.70251C14.2988 9.70251 14.9411 4.08324 11.6013 1.59011C8.26141 -0.903015 5.43377 0.203152 4.13898 0.692178C2.84418 1.1812 0.385843 3.2556 0.107178 5.97132Z" fill="white"/>
<path opacity="0.15" d="M1.01649 3.51939C1.01649 3.51939 3.33945 0.980154 6.55858 0.946519C9.7777 0.912884 12.0333 1.97332 13.0938 4.15467C13.7653 5.64724 14.1737 7.24564 14.301 8.87865C14.301 8.87865 14.9433 4.084 11.6035 1.59163C8.26366 -0.900746 5.4379 0.203909 4.14085 0.692936C2.8438 1.18196 1.92996 2.26205 1.01649 3.51939Z" fill="white"/>
<path opacity="0.21" d="M3.24168 6.73132C3.24168 6.73132 3.33118 5.16371 4.51428 5.16182C5.69739 5.15993 5.78651 6.73132 5.78651 6.73132C5.78651 6.73132 5.53982 5.26537 4.51428 5.26537C3.78171 5.2665 3.20934 6.40064 3.24168 6.73132Z" fill="black"/>
<path opacity="0.21" d="M8.51601 6.73132C8.51601 6.73132 8.60552 5.16371 9.78825 5.16182C10.971 5.15993 11.0605 6.73132 11.0605 6.73132C11.0605 6.73132 10.8142 5.26537 9.78825 5.26537C9.05567 5.2665 8.48254 6.40064 8.51601 6.73132Z" fill="black"/>
<path opacity="0.1" d="M4.51429 4.97135C3.9502 4.97135 3.07622 5.60776 3.07622 6.73094C3.05678 7.13678 3.19652 7.53409 3.46541 7.83751C3.73431 8.14094 4.1109 8.32628 4.51429 8.35372C5.05959 8.35372 5.8843 7.85562 5.8843 6.73094C5.8843 5.60625 5.07802 4.97135 4.51429 4.97135ZM4.53347 8.17307C3.73546 8.1984 3.262 7.30046 3.262 6.64893C3.25779 6.47989 3.28677 6.31168 3.34726 6.15389C3.40775 5.99611 3.49857 5.85184 3.61455 5.72933C3.73052 5.60682 3.86937 5.50847 4.02317 5.43988C4.17697 5.3713 4.3427 5.33383 4.51091 5.32961H4.53347C5.32547 5.32961 5.66806 5.99626 5.66806 6.64931C5.66806 7.30235 5.33261 8.14964 4.53347 8.17307Z" fill="black"/>
<path opacity="0.1" d="M9.83411 4.97135C9.27001 4.97135 8.39566 5.60776 8.39566 6.73094C8.37633 7.13681 8.51615 7.53412 8.7851 7.83754C9.05405 8.14096 9.43069 8.32628 9.83411 8.35372C10.3794 8.35372 11.2037 7.85562 11.2037 6.73094C11.2037 5.60625 10.3975 4.97135 9.83411 4.97135ZM9.85291 8.17307C9.05565 8.1984 8.58144 7.30046 8.58144 6.64893C8.57305 6.30751 8.69995 5.97672 8.93423 5.72931C9.16851 5.4819 9.49098 5.33813 9.83072 5.32961H9.85291C10.6449 5.32961 10.9879 5.99626 10.9879 6.64931C10.9879 7.30235 10.6513 8.14964 9.85291 8.17307Z" fill="black"/>
<path opacity="0.1" d="M6.07684 9.58573C6.07684 9.58573 6.26751 10.266 7.22347 10.266C8.05382 10.2471 8.29751 9.71536 8.32797 9.64242C8.29762 9.90962 8.16717 10.1552 7.96313 10.3292C7.75909 10.5032 7.49677 10.5926 7.22948 10.5793C6.94791 10.591 6.67239 10.495 6.45849 10.3106C6.24458 10.1262 6.1082 9.86718 6.07684 9.58573Z" fill="black"/>
<path opacity="0.3" d="M13.6542 11.5687C13.6243 11.5687 13.5956 11.5806 13.5744 11.6019C13.5533 11.6231 13.5414 11.652 13.5414 11.682V15.1264C13.5414 15.1565 13.5533 15.1853 13.5744 15.2066C13.5956 15.2278 13.6243 15.2398 13.6542 15.2398C13.6841 15.2398 13.7128 15.2278 13.734 15.2066C13.7551 15.1853 13.767 15.1565 13.767 15.1264V11.6817C13.7669 11.6517 13.755 11.6229 13.7338 11.6017C13.7127 11.5806 13.684 11.5687 13.6542 11.5687Z" fill="white"/>
<path opacity="0.3" d="M13.6542 9.78565C13.6243 9.78565 13.5956 9.7976 13.5744 9.81886C13.5533 9.84012 13.5414 9.86896 13.5414 9.89903V10.5963C13.5414 10.6264 13.5533 10.6552 13.5744 10.6765C13.5956 10.6977 13.6243 10.7097 13.6542 10.7097C13.6841 10.7097 13.7128 10.6977 13.734 10.6765C13.7551 10.6552 13.767 10.6264 13.767 10.5963V9.89903C13.767 9.86896 13.7551 9.84012 13.734 9.81886C13.7128 9.7976 13.6841 9.78565 13.6542 9.78565Z" fill="white"/>
<path opacity="0.3" d="M0.662991 8.91152C0.633069 8.91152 0.604373 8.92347 0.583215 8.94473C0.562057 8.96599 0.550171 8.99483 0.550171 9.0249V11.0955C0.550171 11.1104 0.553089 11.1251 0.558759 11.1389C0.564428 11.1527 0.572739 11.1652 0.583215 11.1757C0.593691 11.1862 0.606128 11.1946 0.619816 11.2003C0.633504 11.206 0.648175 11.2089 0.662991 11.2089C0.677806 11.2089 0.692477 11.206 0.706165 11.2003C0.719853 11.1946 0.73229 11.1862 0.742766 11.1757C0.753243 11.1652 0.761553 11.1527 0.767222 11.1389C0.772892 11.1251 0.77581 11.1104 0.77581 11.0955V9.02452C0.775711 8.99452 0.763781 8.96578 0.742634 8.9446C0.721487 8.92342 0.692847 8.91152 0.662991 8.91152Z" fill="white"/>
<defs>
<linearGradient id="paint0_linear" x1="-0.558713" y1="19.9805" x2="17.8495" y2="11.3901" gradientUnits="userSpaceOnUse">
<stop stop-color="#30BAC6"/>
<stop offset="1" stop-color="#B6509E"/>
</linearGradient>
</defs>
</svg>
