<svg width="21" height="21" viewBox="0 0 21 21" fill="none" xmlns="http://www.w3.org/2000/svg">
<path d="M20.6731 0.117688C20.5983 0.0849514 12.8547 -0.983098 5.20052 4.00522C0.449168 7.10912 -0.180738 11.6493 0.0366777 14.6775C11.1696 13.4294 20.4205 0.479843 20.6731 0.117688ZM0.792045 18.0413C1.7485 19.7477 8.98166 23.6168 15.3847 18.2807C21.7877 12.9446 21.2506 3.2359 20.6731 0.117688C20.4712 0.569868 13.4812 16.0873 0.792045 18.0392" fill="#98E35D"/>
<path d="M20.6731 0.117882C20.5983 0.087191 12.8548 -0.982905 5.20052 4.00542C0.449168 7.10931 -0.180738 11.6496 0.0366777 14.6757C11.1696 13.4296 20.4205 0.480036 20.6731 0.117882Z" fill="#16B157"/>
</svg>
