<svg width="21" height="21" viewBox="0 0 21 21" fill="none" xmlns="http://www.w3.org/2000/svg">
<g clip-path="url(#clip0)">
<path d="M0 20.9994C0.932391 19.6619 1.80121 18.4297 2.65943 17.1869C4.12159 15.1017 5.57316 13.0059 7.04591 10.9312C7.26841 10.6152 7.25782 10.4046 7.04591 10.0992C4.97982 7.0029 2.91372 3.89608 0.858224 0.799787C0.699294 0.568092 0.550959 0.325866 0.349647 0.00991789C0.964177 0.00991789 1.48335 0.00991789 2.00252 0.00991789C3.30575 0.00991789 4.61958 0.0204495 5.9228 -0.000613709C6.27245 -0.0111453 6.46317 0.115234 6.65388 0.389055C8.87891 3.65385 11.1145 6.91864 13.3607 10.1729C13.5515 10.4467 13.5091 10.6152 13.3396 10.8575C10.9768 14.1223 8.63522 17.387 6.26186 20.6413C6.14531 20.7993 5.91221 20.9889 5.73209 20.9889C3.86731 21.0099 2.00252 20.9994 0 20.9994Z" fill="#068485"/>
<path d="M21 21C19.0081 21 17.1645 21.0105 15.3103 20.9895C15.1302 20.9895 14.8971 20.8631 14.8017 20.7262C13.8587 19.4624 12.9475 18.1775 12.0045 16.8716C13.0323 15.4393 14.06 14.0175 15.109 12.5536C17.0691 15.3656 19.0081 18.1459 21 21Z" fill="#068485"/>
<path d="M15.1196 8.35153C14.1024 6.87711 13.1383 5.4764 12.1847 4.06517C12.1105 3.94932 12.1105 3.69656 12.1847 3.58072C12.9264 2.4749 13.6892 1.37961 14.4521 0.284328C14.5369 0.157949 14.717 0.021038 14.8547 0.021038C16.7513 -2.51615e-05 18.6585 0.0105064 20.6716 0.0105064C18.8068 2.82244 16.9844 5.55013 15.1196 8.35153Z" fill="#068485"/>
</g>
<defs>
<clipPath id="clip0">
<rect width="21" height="21" fill="white"/>
</clipPath>
</defs>
</svg>
